<svg xmlns="http://www.w3.org/2000/svg" width="192" height="192" viewBox="0 0 512 512">
  <defs>
    <radialGradient id="glow" cx="50%" cy="40%" r="70%">
      <stop offset="0%" stop-color="#f472b6" />
      <stop offset="45%" stop-color="#ec4899" />
      <stop offset="100%" stop-color="#312e81" />
    </radialGradient>
    <linearGradient id="heart" x1="0%" y1="0%" x2="100%" y2="100%">
      <stop offset="0%" stop-color="#fef3c7" />
      <stop offset="50%" stop-color="#fda4af" />
      <stop offset="100%" stop-color="#f97316" />
    </linearGradient>
  </defs>
  <rect width="512" height="512" rx="120" fill="url(#glow)" />
  <g transform="translate(128 120) scale(1.1)">
    <path
      d="M120 240c-7.2-6.2-71.6-61.7-99.6-102C-1.9 108.2-7.5 62.5 21.2 33.5 45-3.4 94.1-3.3 120 28.9 145.9-3.3 195-3.4 218.8 33.5c28.7 29 23.1 74.7.8 104.5-28 40.3-92.4 95.8-99.6 102z"
      fill="url(#heart)"
    />
  </g>
  <g opacity="0.35">
    <circle cx="140" cy="140" r="26" fill="#fdf4ff" />
    <circle cx="360" cy="120" r="18" fill="#ffe4e6" />
    <circle cx="250" cy="360" r="32" fill="#fef9c3" />
  </g>
</svg>
