<svg xmlns="http://www.w3.org/2000/svg" width="512" height="512" viewBox="0 0 512 512">
  <defs>
    <radialGradient id="glow" cx="50%" cy="38%" r="72%">
      <stop offset="0%" stop-color="#f472b6" />
      <stop offset="55%" stop-color="#c084fc" />
      <stop offset="100%" stop-color="#1e1b4b" />
    </radialGradient>
    <linearGradient id="heart" x1="0%" y1="0%" x2="100%" y2="100%">
      <stop offset="0%" stop-color="#fef3c7" />
      <stop offset="45%" stop-color="#fda4af" />
      <stop offset="100%" stop-color="#fb7185" />
    </linearGradient>
  </defs>
  <rect width="512" height="512" rx="120" fill="url(#glow)" />
  <g transform="translate(96 92) scale(1.2)">
    <path
      d="M120 240c-7.2-6.2-71.6-61.7-99.6-102C-1.9 108.2-7.5 62.5 21.2 33.5 45-3.4 94.1-3.3 120 28.9 145.9-3.3 195-3.4 218.8 33.5c28.7 29 23.1 74.7.8 104.5-28 40.3-92.4 95.8-99.6 102z"
      fill="url(#heart)"
    />
  </g>
  <g opacity="0.4">
    <circle cx="150" cy="140" r="28" fill="#fdf4ff" />
    <circle cx="392" cy="140" r="20" fill="#ffe4e6" />
    <circle cx="260" cy="388" r="36" fill="#fef9c3" />
    <circle cx="380" cy="324" r="18" fill="#ede9fe" />
  </g>
</svg>
