<svg width="160" height="160" viewBox="0 0 160 160" fill="none" xmlns="http://www.w3.org/2000/svg">
  <defs>
    <linearGradient id="avatar7_bg" x1="28" y1="30" x2="132" y2="130" gradientUnits="userSpaceOnUse">
      <stop stop-color="#0F2027" />
      <stop offset="0.5" stop-color="#203A43" />
      <stop offset="1" stop-color="#2C5364" />
    </linearGradient>
    <linearGradient id="avatar7_emblem" x1="60" y1="40" x2="108" y2="120" gradientUnits="userSpaceOnUse">
      <stop stop-color="#FFD700" />
      <stop offset="1" stop-color="#FF9C00" />
    </linearGradient>
  </defs>
  <rect x="10" y="10" width="140" height="140" rx="32" fill="url(#avatar7_bg)" />
  <path d="M80 44L112 64V88C112 108 98 126 80 132C62 126 48 108 48 88V64L80 44Z" fill="url(#avatar7_emblem)" />
  <path d="M80 60L98 72V86C98 98 90 110 80 114C70 110 62 98 62 86V72L80 60Z" fill="#301F00" fill-opacity="0.45" />
  <path d="M74 86C74 90.4183 77.5817 94 82 94C86.4183 94 90 90.4183 90 86C90 81.5817 86.4183 78 82 78C77.5817 78 74 81.5817 74 86Z" fill="#FFF7C2" />
</svg>
