<svg width="160" height="160" viewBox="0 0 160 160" fill="none" xmlns="http://www.w3.org/2000/svg">
  <defs>
    <linearGradient id="avatar2_bg" x1="24" y1="30" x2="136" y2="130" gradientUnits="userSpaceOnUse">
      <stop stop-color="#FF5F6D" />
      <stop offset="1" stop-color="#FFC371" />
    </linearGradient>
    <radialGradient id="avatar2_glow" cx="0" cy="0" r="1" gradientTransform="translate(80 80) rotate(90) scale(62)" gradientUnits="userSpaceOnUse">
      <stop stop-color="#FFF0F3" stop-opacity="0.95" />
      <stop offset="1" stop-color="#FF5F6D" stop-opacity="0" />
    </radialGradient>
  </defs>
  <rect x="12" y="12" width="136" height="136" rx="68" fill="url(#avatar2_bg)" />
  <circle cx="80" cy="80" r="60" fill="url(#avatar2_glow)" />
  <path d="M80 107C65 96 50 85 50 69C50 59 58 51 68 51C74 51 79 54 82 59C85 54 90 51 96 51C106 51 114 59 114 69C114 85 99 96 84 107L82 108L80 107Z" fill="#4B1C40" fill-opacity="0.75" />
  <circle cx="62" cy="70" r="6" fill="#FFFFFF" fill-opacity="0.65" />
  <circle cx="100" cy="70" r="6" fill="#FFFFFF" fill-opacity="0.65" />
</svg>
