<svg xmlns="http://www.w3.org/2000/svg" style="display:none">
  <defs>
    <filter id="glow-cyan" x="-50%" y="-50%" width="200%" height="200%">
      <feGaussianBlur stdDeviation="4" result="blur"/>
      <feMerge><feMergeNode in="blur"/><feMergeNode in="SourceGraphic"/></feMerge>
    </filter>
    <filter id="glow-magenta" x="-50%" y="-50%" width="200%" height="200%">
      <feGaussianBlur stdDeviation="6" result="blur"/>
      <feMerge><feMergeNode in="blur"/><feMergeNode in="SourceGraphic"/></feMerge>
    </filter>
  </defs>

  <symbol id="avatar-bolt" viewBox="0 0 200 200">
    <g filter="url(#glow-cyan)" transform="translate(100,100)">
      <path d="M-10,-50 L-30,10 L0,10 L-20,70 L20,0 L-10,0 L10,-50 Z"
            fill="#00ffff" stroke="#00ffff" stroke-width="4"/>
    </g>
  </symbol>

  <symbol id="avatar-heart" viewBox="0 0 200 200">
    <g filter="url(#glow-magenta)">
      <path d="M100 175 C 50 125, 50 75, 100 50 C 150 75, 150 125, 100 175 Z"
            fill="#ff00ff" stroke="#ff00ff" stroke-width="4"/>
    </g>
  </symbol>

  <symbol id="avatar-controller" viewBox="0 0 200 200">
    <g filter="url(#glow-cyan)" stroke-width="4">
      <rect x="40" y="80" width="120" height="50" rx="10"
            fill="#222" stroke="#ffff00"/>
      <circle cx="70" cy="105" r="15" fill="#333" stroke="#ffff00"/>
      <circle cx="140" cy="95" r="8" fill="#ff00ff"/>
      <circle cx="160" cy="115" r="8" fill="#00ffff"/>
    </g>
  </symbol>

  <symbol id="avatar-star" viewBox="0 0 200 200">
    <g filter="url(#glow-magenta)">
      <path d="M100 25 L125 75 L180 75 L135 110 L150 165 L100 130 L50 165 L65 110 L20 75 L75 75 Z"
            fill="#ffff00" stroke="#ffff00" stroke-width="3"/>
    </g>
  </symbol>

  <symbol id="avatar-note" viewBox="0 0 200 200">
    <g filter="url(#glow-cyan)" fill="#00ff00" stroke="#00ff00" stroke-width="4">
      <circle cx="80" cy="150" r="20"/>
      <rect x="95" y="50" width="10" height="105"/>
      <path d="M105 50 C 145 50, 145 80, 105 80"/>
    </g>
  </symbol>

  <symbol id="avatar-rocket" viewBox="0 0 200 200">
    <g filter="url(#glow-cyan)" transform="translate(100,100) rotate(-45)">
      <path d="M0 -70 L20 -20 L20 30 C20 40,-20 40,-20 30 L-20 -20 Z"
            fill="#ff4500" stroke="#ff4500" stroke-width="4"/>
      <path d="M0 -70 L-10 -40 L10 -40 Z"
            fill="#00ffff" stroke="#00ffff" stroke-width="3"/>
      <path d="M-20 40 L-30 60 L-10 40 Z"
            fill="#ff4500" stroke="#ff4500" stroke-width="4"/>
      <path d="M20 40 L30 60 L10 40 Z"
            fill="#ff4500" stroke="#ff4500" stroke-width="4"/>
    </g>
  </symbol>

  <symbol id="avatar-diamond" viewBox="0 0 200 200">
    <g filter="url(#glow-magenta)" stroke="#33ffff" stroke-width="4">
      <path d="M100 40 L150 80 L100 160 L50 80 Z" fill="none"/>
      <path d="M50 80 L150 80"/>
      <path d="M100 40 L75 80 L100 95 L125 80 Z" fill="none" stroke-width="2"/>
    </g>
  </symbol>

  <symbol id="avatar-mask" viewBox="0 0 200 200">
    <g filter="url(#glow-cyan)" stroke="#ff00ff" stroke-width="4" fill="none" transform="translate(0 20)">
      <path d="M40 80 C 60 40, 140 40, 160 80 C 150 110, 120 120, 100 120 C 80 120, 50 110, 40 80 Z"/>
      <circle cx="75" cy="80" r="10"/>
      <circle cx="125" cy="80" r="10"/>
    </g>
  </symbol>
</svg>
