<svg xmlns="http://www.w3.org/2000/svg" style="display:none">
  <symbol id="avatar-bolt" viewBox="0 0 200 200">
    <path d="M108 20l-68 98h46l-12 62 88-110h-50l-4-50z" fill="#facc15" stroke="#f59e0b" stroke-width="12" stroke-linejoin="round" />
  </symbol>
  <symbol id="avatar-heart" viewBox="0 0 200 200">
    <path d="M100 178s-66-40-80-86c-14-44 28-84 64-60 12 8 16 16 16 16s4-8 16-16c36-24 78 16 64 60-14 46-80 86-80 86z" fill="#ef4444" stroke="#b91c1c" stroke-width="10" stroke-linejoin="round" />
  </symbol>
  <symbol id="avatar-controller" viewBox="0 0 200 200">
    <path d="M56 70c-28 0-44 36-32 64 8 18 20 26 36 26 10 0 20-4 28-10l12-8 12 8c8 6 18 10 28 10 16 0 28-8 36-26 12-28-4-64-32-64-16 0-30 10-44 24-14-14-28-24-44-24z" fill="#1f2937" stroke="#0f172a" stroke-width="8" />
    <circle cx="70" cy="110" r="10" fill="#fff" />
    <rect x="60" y="98" width="20" height="24" rx="6" fill="#f97316" />
    <circle cx="130" cy="110" r="16" fill="#a855f7" />
    <circle cx="150" cy="94" r="6" fill="#22d3ee" />
    <circle cx="150" cy="126" r="6" fill="#22d3ee" />
  </symbol>
  <symbol id="avatar-star" viewBox="0 0 200 200">
    <path d="M100 22l22 58 60 4-46 40 14 58-50-32-50 32 14-58-46-40 60-4 22-58z" fill="#fde047" stroke="#facc15" stroke-width="10" stroke-linejoin="round" />
  </symbol>
  <symbol id="avatar-note" viewBox="0 0 200 200">
    <path d="M70 32v116a28 28 0 1020 26V80l48-12v56a28 28 0 1020 26V32L70 52V32z" fill="#38bdf8" stroke="#0ea5e9" stroke-width="10" stroke-linejoin="round" />
  </symbol>
  <symbol id="avatar-rocket" viewBox="0 0 200 200">
    <path d="M100 20c-26 18-46 72-46 108 0 30 18 52 46 52s46-22 46-52c0-36-20-90-46-108z" fill="#f97316" stroke="#ea580c" stroke-width="10" />
    <circle cx="100" cy="90" r="18" fill="#fff" />
    <path d="M72 140l-20 44 28-12 20 20 20-20 28 12-20-44H72z" fill="#38bdf8" stroke="#0ea5e9" stroke-width="6" stroke-linejoin="round" />
  </symbol>
  <symbol id="avatar-diamond" viewBox="0 0 200 200">
    <path d="M40 74l60-54 60 54-60 106-60-106z" fill="#67e8f9" stroke="#06b6d4" stroke-width="10" stroke-linejoin="round" />
    <path d="M100 20l-36 54 36 106 36-106-36-54z" fill="#22d3ee" opacity="0.6" />
  </symbol>
  <symbol id="avatar-mask" viewBox="0 0 200 200">
    <path d="M30 70c0 62 24 112 70 112s70-50 70-112C170 54 146 42 100 42S30 54 30 70z" fill="#6b21a8" stroke="#4c1d95" stroke-width="10" />
    <path d="M60 92c12 0 22-6 30-14 8 8 18 14 30 14 16 0 32-10 32-24-18-8-40-12-62-12s-44 4-62 12c0 14 16 24 32 24z" fill="#a855f7" />
    <circle cx="76" cy="118" r="10" fill="#fff" />
    <circle cx="124" cy="118" r="10" fill="#fff" />
    <path d="M84 150c6 6 26 6 32 0" stroke="#fff" stroke-width="8" stroke-linecap="round" />
  </symbol>
</svg>
